<svg width="58" height="37" viewBox="0 0 58 37" fill="none" xmlns="http://www.w3.org/2000/svg">
<path d="M53.9378 16.1886L52.4589 10.2731C52.8633 10.1872 53.1667 9.82846 53.1667 9.3987V8.44492C53.1667 6.37406 51.4818 4.68936 49.4111 4.68936H42.675V2.72202C42.675 1.70299 41.846 0.874023 40.827 0.874023H6.49026C5.47123 0.874023 4.64226 1.70299 4.64226 2.72202V18.9366C4.64226 19.4304 5.04258 19.8308 5.53648 19.8308C6.03027 19.8308 6.4307 19.4305 6.4307 18.9366V2.72202C6.4307 2.68911 6.45736 2.66246 6.49026 2.66246H40.8269C40.8598 2.66246 40.8864 2.68911 40.8864 2.72202V18.9368C40.8864 19.4306 41.2867 19.831 41.7806 19.831C42.2744 19.831 42.6749 19.4307 42.6749 18.9368V17.9231H53.2231C53.224 17.9231 53.2247 17.9234 53.2254 17.9234C53.2263 17.9234 53.2271 17.9233 53.2279 17.9233C54.5259 17.9241 55.628 18.7761 56.0066 19.9501H53.2261C52.7323 19.9501 52.3319 20.3504 52.3319 20.8443V22.7518C52.3319 24.2968 53.5887 25.5536 55.1337 25.5536H56.1471V29.488H53.809C53.0409 27.2702 50.9327 25.6727 48.4571 25.6727C45.9815 25.6727 43.8731 27.2702 43.1052 29.488H42.6746V22.7517C42.6746 22.2579 42.2743 21.8575 41.7804 21.8575C41.2866 21.8575 40.8862 22.2578 40.8862 22.7517V29.4877H22.334C21.5659 27.27 19.4577 25.6725 16.9821 25.6725C14.5064 25.6725 12.3981 27.27 11.6301 29.4877H6.49026C6.45736 29.4877 6.4307 29.4611 6.4307 29.4282V27.4609H10.3055C10.7993 27.4609 11.1997 27.0606 11.1997 26.5667C11.1997 26.0728 10.7994 25.6725 10.3055 25.6725H1.72137C1.22758 25.6725 0.827148 26.0728 0.827148 26.5667C0.827148 27.0606 1.22747 27.4609 1.72137 27.4609H4.64238V29.4282C4.64238 30.4472 5.47134 31.2762 6.49037 31.2762H11.3205C11.3203 31.296 11.3189 31.3158 11.3189 31.3357C11.3189 34.4584 13.8595 36.9988 16.9821 36.9988C20.1046 36.9988 22.6452 34.4584 22.6452 31.3357C22.6452 31.3157 22.6438 31.296 22.6436 31.2762H42.7955C42.7953 31.296 42.794 31.3158 42.794 31.3357C42.794 34.4584 45.3345 36.9988 48.4571 36.9988C51.5797 36.9988 54.1202 34.4584 54.1202 31.3357C54.1202 31.3157 54.1189 31.296 54.1186 31.2762H57.0413C57.5351 31.2762 57.9355 30.8758 57.9355 30.3819V20.844C57.9357 18.4892 56.1982 16.5327 53.9378 16.1886ZM42.675 6.47768H49.4111C50.4958 6.47768 51.3783 7.36019 51.3783 8.44492V8.50448H42.675V6.47768ZM42.675 16.1348V10.2928H50.6205L52.081 16.1348H42.675ZM16.9821 35.2107C14.8455 35.2107 13.1073 33.4726 13.1073 31.336C13.1073 29.1993 14.8455 27.4612 16.9821 27.4612C19.1186 27.4612 20.8568 29.1993 20.8568 31.336C20.8568 33.4726 19.1186 35.2107 16.9821 35.2107ZM48.4573 35.2107C46.3208 35.2107 44.5825 33.4726 44.5825 31.336C44.5825 29.1993 46.3208 27.4612 48.4573 27.4612C50.5939 27.4612 52.3321 29.1993 52.3321 31.336C52.3321 33.4726 50.5939 35.2107 48.4573 35.2107ZM56.1473 23.7652H55.1339C54.5751 23.7652 54.1204 23.3105 54.1204 22.7517V21.7383H56.1472V23.7652H56.1473Z" fill="#2E2E2E"/>
<path d="M16.9818 29.4878C15.9628 29.4878 15.1338 30.3168 15.1338 31.3358C15.1338 32.3548 15.9628 33.1838 16.9818 33.1838C18.0008 33.1838 18.8298 32.3548 18.8298 31.3358C18.8298 30.3168 18.0008 29.4878 16.9818 29.4878Z" fill="#2E2E2E"/>
<path d="M48.4574 29.4878C47.4383 29.4878 46.6094 30.3168 46.6094 31.3358C46.6094 32.3548 47.4383 33.1838 48.4574 33.1838C49.4764 33.1838 50.3054 32.3548 50.3054 31.3358C50.3054 30.3168 49.4764 29.4878 48.4574 29.4878Z" fill="#2E2E2E"/>
<path d="M37.9651 25.6729H24.612C24.1182 25.6729 23.7178 26.0732 23.7178 26.5671C23.7178 27.061 24.1181 27.4613 24.612 27.4613H37.9651C38.4589 27.4613 38.8593 27.061 38.8593 26.5671C38.8593 26.0732 38.459 25.6729 37.9651 25.6729Z" fill="#2E2E2E"/>
<path d="M15.0742 21.8574H3.62859C3.1348 21.8574 2.73438 22.2577 2.73438 22.7516C2.73438 23.2455 3.13469 23.6459 3.62859 23.6459H15.0742C15.568 23.6459 15.9684 23.2455 15.9684 22.7516C15.9684 22.2577 15.568 21.8574 15.0742 21.8574Z" fill="#2E2E2E"/>
<path d="M31.9216 9.71983C31.5725 9.37071 31.0062 9.37071 30.657 9.71995L22.7051 17.6718L18.5684 13.5351C18.2192 13.1858 17.653 13.1858 17.3039 13.5351C16.9547 13.8843 16.9547 14.4504 17.3039 14.7996L22.0729 19.5686C22.2475 19.7433 22.4764 19.8305 22.7051 19.8305C22.9339 19.8305 23.1629 19.7433 23.3373 19.5686L31.9215 10.9845C32.2707 10.6351 32.2707 10.0691 31.9216 9.71983Z" fill="#2E2E2E"/>
</svg>
