<svg width="54" height="57" viewBox="0 0 54 57" fill="none" xmlns="http://www.w3.org/2000/svg">
<path d="M22.8897 35.976L12.2757 25.4902C11.5839 24.7983 10.6639 24.4173 9.68561 24.4173C9.01352 24.4173 8.36905 24.597 7.80715 24.9339V12.3109C7.80715 11.6665 7.63929 11.0608 7.34605 10.5343C7.53914 10.4686 7.74282 10.4325 7.95164 10.4325C8.98741 10.4325 9.82999 11.2752 9.82999 12.311V21.5887C9.82999 22.0815 10.2295 22.481 10.7223 22.481C11.215 22.481 11.6145 22.0815 11.6145 21.5887V12.311C11.6145 10.2912 9.97143 8.64795 7.95164 8.64795C7.27156 8.64795 6.61639 8.83481 6.04739 9.18211C5.49237 8.84344 4.8408 8.64795 4.14446 8.64795C2.12467 8.64795 0.481445 10.2912 0.481445 12.3117L0.496954 29.9062C0.497718 30.6945 0.789536 31.8073 1.17582 32.4946C1.18205 32.5056 1.18838 32.5164 1.19526 32.5271L12.1854 50.2666C12.4171 50.6887 12.6262 51.4926 12.6262 51.9664V55.329C12.6262 55.8218 13.0257 56.2213 13.5185 56.2213C14.0112 56.2213 14.4107 55.8218 14.4107 55.329V51.9664C14.4107 51.1779 14.1192 50.0648 13.7328 49.3773C13.7266 49.3663 13.7203 49.3555 13.7135 49.3448L2.72305 31.6051C2.4913 31.1827 2.28194 30.3786 2.28139 29.9046L2.26588 12.3109C2.26588 11.2751 3.10846 10.4324 4.14424 10.4324C5.18002 10.4324 6.0226 11.2751 6.0226 12.3109V28.0804C6.0226 28.1027 6.02435 28.1244 6.02599 28.1461C6.04226 29.0621 6.39818 29.973 7.09551 30.6705L15.6206 39.1956C15.9691 39.5441 16.5341 39.5441 16.8824 39.1956C17.2309 38.8471 17.2309 38.2821 16.8824 37.9337L8.35747 29.4085C8.00275 29.0538 7.80726 28.582 7.80726 28.0802C7.80726 27.5784 8.00275 27.1067 8.35747 26.7519C8.7122 26.3971 9.184 26.2017 9.68572 26.2017C10.1874 26.2017 10.6591 26.3972 11.0177 26.7557L21.6317 37.2415C22.8121 38.4219 23.8092 40.8293 23.8092 42.4986V55.3446C23.8092 55.8374 24.2087 56.2369 24.7015 56.2369C25.1942 56.2369 25.5937 55.8374 25.5937 55.3446V42.4986C25.5937 40.3574 24.4077 37.4939 22.8897 35.976Z" fill="#2E2E2E"/>
<path d="M50.0177 8.64795C49.3214 8.64795 48.6698 8.84344 48.1149 9.18211C47.5458 8.83481 46.8905 8.64795 46.2107 8.64795C44.1909 8.64795 42.5477 10.2912 42.5477 12.311V21.5887C42.5477 22.0815 42.9472 22.481 43.4399 22.481C43.9327 22.481 44.3322 22.0815 44.3322 21.5887V12.311C44.3322 11.2752 45.1749 10.4325 46.2106 10.4325C46.4194 10.4325 46.6231 10.4686 46.816 10.5343C46.5227 11.0609 46.3549 11.6665 46.3549 12.3109V24.9339C45.793 24.5971 45.1486 24.4173 44.4765 24.4173C43.498 24.4173 42.5781 24.7983 41.8902 25.4863L31.2685 35.9798C29.7544 37.4939 28.5684 40.3574 28.5684 42.4986V55.3448C28.5684 55.8376 28.9679 56.2371 29.4606 56.2371C29.9534 56.2371 30.3529 55.8376 30.3529 55.3448V42.4988C30.3529 40.8296 31.35 38.4222 32.5266 37.2457L43.1482 26.7522C43.5029 26.3975 43.9747 26.202 44.4765 26.202C44.9782 26.202 45.4499 26.3975 45.8047 26.7522C46.1595 27.107 46.3549 27.5788 46.3549 28.0805C46.3549 28.5823 46.1595 29.054 45.8047 29.4088L37.2796 37.9339C36.9311 38.2824 36.9311 38.8474 37.2796 39.1958C37.6281 39.5443 38.1931 39.5443 38.5415 39.1958L47.0666 30.6707C47.764 29.9733 48.1198 29.0623 48.1361 28.1463C48.1376 28.1246 48.1395 28.1027 48.1395 28.0806V12.3111C48.1395 11.2753 48.9822 10.4326 50.0179 10.4326C51.0536 10.4326 51.8963 11.2753 51.8963 12.3102L51.8808 29.9049C51.8805 30.3789 51.6709 31.183 51.439 31.6055L40.4489 49.3449C40.4422 49.3556 40.4358 49.3665 40.4296 49.3774C40.0431 50.0648 39.7517 51.1778 39.7517 51.9665V55.3291C39.7517 55.8219 40.1512 56.2214 40.644 56.2214C41.1367 56.2214 41.5362 55.8219 41.5362 55.3291V51.9665C41.5362 51.4927 41.7453 50.6888 41.9769 50.2667L52.967 32.5272C52.9737 32.5165 52.9802 32.5056 52.9865 32.4947C53.3729 31.8073 53.6647 30.6945 53.6654 29.9063L53.6809 12.311C53.6806 10.2913 52.0375 8.64795 50.0177 8.64795Z" fill="#2E2E2E"/>
<path d="M39.8703 6.86334C40.363 6.86334 40.7625 6.46384 40.7625 5.97107V1.2121C40.7625 0.719326 40.363 0.319824 39.8703 0.319824H14.2912C13.7984 0.319824 13.3989 0.719326 13.3989 1.2121V5.97096C13.3989 6.46373 13.7984 6.86323 14.2912 6.86323H14.5886V8.64777H14.2912C13.7984 8.64777 13.3989 9.04728 13.3989 9.54005V14.2991C13.3989 14.7919 13.7984 15.1914 14.2912 15.1914H14.5886V16.9759H14.2912C13.7984 16.9759 13.3989 17.3754 13.3989 17.8682V22.6271C13.3989 23.1198 13.7984 23.5194 14.2912 23.5194H39.8704C40.3631 23.5194 40.7626 23.1198 40.7626 22.6271V17.8682C40.7626 17.3754 40.3631 16.9759 39.8704 16.9759H39.573V15.1914H39.8704C40.3631 15.1914 40.7626 14.7919 40.7626 14.2991V9.54027C40.7626 9.0475 40.3631 8.64799 39.8704 8.64799H39.573V6.86345H39.8703V6.86334ZM38.978 21.7349H15.1835V18.7606H38.978V21.7349ZM38.978 13.4069H35.1114C34.6186 13.4069 34.2191 13.8064 34.2191 14.2991C34.2191 14.7919 34.6186 15.1914 35.1114 15.1914H37.7883V16.9759H16.3731V15.1914H31.5422C32.035 15.1914 32.4345 14.7919 32.4345 14.2991C32.4345 13.8064 32.035 13.4069 31.5422 13.4069H15.1835V10.4325H38.978V13.4069ZM16.3731 8.64788V6.86334H37.7882V8.64788H16.3731ZM38.978 5.07868H15.1835V2.10437H38.978V5.07868Z" fill="#2E2E2E"/>
</svg>
