<svg width="57" height="57" viewBox="0 0 57 57" fill="none" xmlns="http://www.w3.org/2000/svg">
<path d="M56.6028 4.58363C56.607 3.5626 56.213 2.60403 55.4933 1.88432C54.7735 1.1646 53.8131 0.771215 52.794 0.774928C51.776 0.779188 50.8175 1.17924 50.0953 1.90135C49.7895 2.20715 49.2333 2.86767 48.929 3.2343C48.6094 3.61928 48.6623 4.19047 49.0473 4.50991C49.4321 4.82947 50.0033 4.77661 50.3229 4.39164C50.7995 3.81761 51.1934 3.36558 51.3764 3.18254C51.7584 2.80062 52.2645 2.58896 52.8016 2.58667C52.8045 2.58667 52.8073 2.58667 52.8102 2.58667C53.3412 2.58667 53.8389 2.79199 54.2122 3.16539C54.5875 3.54075 54.7932 4.04172 54.7909 4.57599C54.7886 5.11299 54.577 5.61908 54.195 6.00122C53.8531 6.34317 52.6777 7.27552 50.9938 8.45186C49.9976 6.74879 48.1502 5.6015 46.0388 5.6015H32.7733C30.9826 5.6015 29.2992 6.29883 28.0329 7.56494L1.51699 34.0812C0.98086 34.6173 0.685547 35.3301 0.685547 36.0883C0.685547 36.8464 0.98086 37.5594 1.51699 38.0954L19.2824 55.8608C19.8359 56.4142 20.5626 56.6908 21.2895 56.6908C22.0164 56.6908 22.7434 56.4141 23.2966 55.8608L49.8127 29.3448C51.0789 28.0786 51.7762 26.3952 51.7762 24.6044V11.339C51.7762 10.9475 51.7365 10.5652 51.6614 10.1956C53.5782 8.87659 54.9853 7.77321 55.4761 7.2824C56.1984 6.56028 56.5985 5.60183 56.6028 4.58363ZM49.9644 24.6044C49.9644 25.9111 49.4555 27.1397 48.5317 28.0635L22.0156 54.5797C21.6154 54.98 20.9638 54.98 20.5636 54.5797L2.79817 36.8143C2.60432 36.6205 2.4974 36.3626 2.4974 36.0883C2.4974 35.8139 2.60421 35.5562 2.79817 35.3623L29.3142 8.84634C30.2382 7.92239 31.4667 7.41357 32.7733 7.41357H46.0387C47.5283 7.41357 48.8269 8.24763 49.4918 9.47322C48.4217 10.1818 47.2235 10.9353 45.9524 11.6762C45.9127 11.6327 45.8722 11.5897 45.8302 11.5476C44.3466 10.0641 41.9328 10.0641 40.4492 11.5476C38.9657 13.0312 38.9657 15.445 40.4492 16.9286C41.191 17.6703 42.1654 18.0411 43.1397 18.0411C44.114 18.0411 45.0884 17.6703 45.8302 16.9286C46.8204 15.9383 47.1486 14.5339 46.817 13.2681C47.9226 12.6245 48.9843 11.9667 49.964 11.3303C49.9641 11.3333 49.9643 11.3362 49.9643 11.3391V24.6044H49.9644ZM42.3307 14.6451C42.4898 14.9615 42.8091 15.1441 43.1407 15.1441C43.2775 15.1441 43.4166 15.113 43.5472 15.0472C44.0782 14.7801 44.6073 14.5023 45.1312 14.2177C45.1364 14.7348 44.9431 15.2536 44.5493 15.6474C43.7722 16.4244 42.5079 16.4244 41.7307 15.6474C40.9537 14.8702 40.9537 13.606 41.7307 12.8288C42.1193 12.4402 42.6297 12.246 43.14 12.246C43.5441 12.246 43.947 12.3699 44.2907 12.6133C43.7779 12.892 43.2575 13.165 42.733 13.4289C42.2858 13.6536 42.1057 14.1982 42.3307 14.6451Z" fill="#2E2E2E"/>
<path d="M27.6789 19.2271C27.1786 19.2271 26.7729 19.6326 26.7729 20.133V39.2649C26.7729 39.7652 27.1786 40.1708 27.6789 40.1708C28.1792 40.1708 28.5848 39.7652 28.5848 39.2649V20.133C28.5848 19.6326 28.1792 19.2271 27.6789 19.2271Z" fill="#2E2E2E"/>
<path d="M23.5364 27.0088C22.0529 25.525 19.639 25.5251 18.1556 27.0087C16.6721 28.4922 16.6721 30.9061 18.1556 32.3896C18.8975 33.1315 19.8717 33.5023 20.8461 33.5022C21.8203 33.5022 22.7948 33.1312 23.5365 32.3896C24.2552 31.6709 24.651 30.7155 24.651 29.6992C24.651 28.6828 24.2551 27.7273 23.5364 27.0088ZM22.2553 31.1083C21.4781 31.8855 20.2139 31.8854 19.4368 31.1083C18.6598 30.3312 18.6598 29.0669 19.4368 28.2898C19.8254 27.9012 20.3358 27.707 20.8461 27.707C21.3565 27.707 21.8668 27.9012 22.2554 28.2898C22.6318 28.6662 22.8391 29.1666 22.8391 29.699C22.839 30.2315 22.6317 30.7319 22.2553 31.1083Z" fill="#2E2E2E"/>
<path d="M37.2024 27.0087C35.7188 25.525 33.3049 25.5251 31.8216 27.0087C30.3381 28.4923 30.3381 30.9061 31.8216 32.3896C32.5634 33.1314 33.5377 33.5022 34.5121 33.5022C35.4864 33.5022 36.4608 33.1314 37.2025 32.3896C38.6859 30.9061 38.6859 28.4923 37.2024 27.0087ZM35.9212 31.1083C35.144 31.8855 33.8798 31.8854 33.1027 31.1083C32.3257 30.3312 32.3257 29.0669 33.1027 28.2898C33.4913 27.9012 34.0017 27.707 34.512 27.707C35.0224 27.707 35.5327 27.9012 35.9213 28.2898C36.6983 29.0669 36.6983 30.3312 35.9212 31.1083Z" fill="#2E2E2E"/>
</svg>
